<svg width="14" height="14" viewBox="0 0 14 14" fill="none" xmlns="http://www.w3.org/2000/svg">
<path fill-rule="evenodd" clip-rule="evenodd" d="M7.00091 8.17829L11.7151 12.8925C11.8722 13.0443 12.0827 13.1283 12.3012 13.1264C12.5197 13.1245 12.7288 13.0368 12.8833 12.8823C13.0378 12.7278 13.1254 12.5188 13.1273 12.3003C13.1292 12.0818 13.0452 11.8713 12.8934 11.7141L8.17924 6.99996L12.8934 2.28579C13.0452 2.12863 13.1292 1.91812 13.1273 1.69963C13.1254 1.48113 13.0378 1.27212 12.8833 1.11761C12.7288 0.963106 12.5197 0.875465 12.3012 0.873567C12.0827 0.871668 11.8722 0.955663 11.7151 1.10746L7.00091 5.82163L2.28674 1.10746C2.12887 0.959416 1.91959 0.8786 1.70319 0.882114C1.48678 0.885628 1.28024 0.973196 1.12725 1.12629C0.974266 1.27938 0.886844 1.48599 0.883483 1.7024C0.880122 1.9188 0.961086 2.12802 1.10924 2.28579L5.82258 6.99996L1.10841 11.7141C1.02882 11.791 0.965334 11.883 0.92166 11.9846C0.877985 12.0863 0.854997 12.1956 0.854035 12.3063C0.853074 12.4169 0.874158 12.5267 0.916059 12.6291C0.95796 12.7315 1.01984 12.8245 1.09808 12.9028C1.17633 12.981 1.26937 13.0429 1.37178 13.0848C1.4742 13.1267 1.58393 13.1478 1.69458 13.1468C1.80523 13.1459 1.91458 13.1229 2.01625 13.0792C2.11792 13.0355 2.20987 12.9721 2.28674 12.8925L7.00091 8.17829Z" fill="#7C7C7C"/>
</svg>
