<svg width="16" height="16" viewBox="0 0 16 16" fill="none" xmlns="http://www.w3.org/2000/svg">
<path d="M3.83496 6.05746C3.83496 5.46802 4.06912 4.90272 4.48592 4.48592C4.90272 4.06912 5.46802 3.83496 6.05746 3.83496H13.2791C13.571 3.83496 13.86 3.89245 14.1296 4.00414C14.3993 4.11583 14.6443 4.27954 14.8507 4.48592C15.057 4.69229 15.2208 4.9373 15.3325 5.20695C15.4441 5.47659 15.5016 5.7656 15.5016 6.05746V13.2791C15.5016 13.571 15.4441 13.86 15.3325 14.1296C15.2208 14.3993 15.057 14.6443 14.8507 14.8507C14.6443 15.057 14.3993 15.2208 14.1296 15.3325C13.86 15.4441 13.571 15.5016 13.2791 15.5016H6.05746C5.7656 15.5016 5.47659 15.4441 5.20695 15.3325C4.9373 15.2208 4.69229 15.057 4.48592 14.8507C4.27954 14.6443 4.11583 14.3993 4.00414 14.1296C3.89245 13.86 3.83496 13.571 3.83496 13.2791V6.05746Z" stroke="#7C7C7C" stroke-linecap="round" stroke-linejoin="round"/>
<path d="M1.34333 11.9475C1.08779 11.8018 0.875227 11.5912 0.727146 11.3371C0.579065 11.0829 0.500709 10.7942 0.5 10.5V2.16667C0.5 1.25 1.25 0.5 2.16667 0.5H10.5C11.125 0.5 11.465 0.820833 11.75 1.33333" stroke="#7C7C7C" stroke-linecap="round" stroke-linejoin="round"/>
</svg>
