<svg width="16" height="16" viewBox="0 0 16 16" fill="none" xmlns="http://www.w3.org/2000/svg">
<g clip-path="url(#clip0_95_3779)">
<path d="M14 2.99919H13V14.4992C13 14.7075 12.9609 14.9028 12.8828 15.0851C12.8047 15.2674 12.6979 15.4263 12.5625 15.5617C12.4271 15.6971 12.2682 15.8039 12.0859 15.882C11.9036 15.9601 11.7083 15.9992 11.5 15.9992H3.5C3.29167 15.9992 3.09635 15.9601 2.91406 15.882C2.73177 15.8039 2.57292 15.6971 2.4375 15.5617C2.30208 15.4263 2.19531 15.2674 2.11719 15.0851C2.03906 14.9028 2 14.7075 2 14.4992V2.99919H1V1.99919H5V0.999186C5 0.858561 5.02604 0.728353 5.07812 0.608561C5.13021 0.48877 5.20052 0.384603 5.28906 0.296061C5.3776 0.20752 5.48438 0.134603 5.60938 0.0773112C5.73438 0.0200195 5.86458 -0.00602214 6 -0.000813802H9C9.14062 -0.000813802 9.27083 0.0252279 9.39062 0.0773112C9.51042 0.129395 9.61458 0.199707 9.70312 0.288249C9.79167 0.37679 9.86458 0.483561 9.92188 0.608561C9.97917 0.733561 10.0052 0.863769 10 0.999186V1.99919H14V2.99919ZM6 1.99919H9V0.999186H6V1.99919ZM12 2.99919H3V14.4992C3 14.6346 3.04948 14.7518 3.14844 14.8507C3.2474 14.9497 3.36458 14.9992 3.5 14.9992H11.5C11.6354 14.9992 11.7526 14.9497 11.8516 14.8507C11.9505 14.7518 12 14.6346 12 14.4992V2.99919ZM6 12.9992H5V4.99919H6V12.9992ZM8 12.9992H7V4.99919H8V12.9992ZM10 12.9992H9V4.99919H10V12.9992Z" fill="#E63838"/>
</g>
<defs>
<clipPath id="clip0_95_3779">
<rect width="16" height="16" fill="white"/>
</clipPath>
</defs>
</svg>
