<svg width="14" height="15" viewBox="0 0 14 15" fill="none" xmlns="http://www.w3.org/2000/svg">
<path d="M12.25 8.8125V11.875C12.25 12.1071 12.1578 12.3296 11.9937 12.4937C11.8296 12.6578 11.6071 12.75 11.375 12.75H2.625C2.39294 12.75 2.17038 12.6578 2.00628 12.4937C1.84219 12.3296 1.75 12.1071 1.75 11.875V8.8125C1.75 8.69647 1.79609 8.58519 1.87814 8.50314C1.96019 8.42109 2.07147 8.375 2.1875 8.375C2.30353 8.375 2.41481 8.42109 2.49686 8.50314C2.57891 8.58519 2.625 8.69647 2.625 8.8125V11.875H11.375V8.8125C11.375 8.69647 11.4211 8.58519 11.5031 8.50314C11.5852 8.42109 11.6965 8.375 11.8125 8.375C11.9285 8.375 12.0398 8.42109 12.1219 8.50314C12.2039 8.58519 12.25 8.69647 12.25 8.8125ZM6.69047 9.12203C6.7311 9.16271 6.77935 9.19498 6.83246 9.217C6.88558 9.23901 6.94251 9.25034 7 9.25034C7.05749 9.25034 7.11442 9.23901 7.16754 9.217C7.22065 9.19498 7.2689 9.16271 7.30953 9.12203L9.49703 6.93453C9.53768 6.89388 9.56992 6.84563 9.59192 6.79252C9.61392 6.73941 9.62524 6.68249 9.62524 6.625C9.62524 6.56751 9.61392 6.51059 9.59192 6.45748C9.56992 6.40437 9.53768 6.35612 9.49703 6.31547C9.45638 6.27482 9.40813 6.24258 9.35502 6.22058C9.30191 6.19858 9.24499 6.18726 9.1875 6.18726C9.13001 6.18726 9.07309 6.19858 9.01998 6.22058C8.96687 6.24258 8.91862 6.27482 8.87797 6.31547L7.4375 7.75648V2.6875C7.4375 2.57147 7.39141 2.46019 7.30936 2.37814C7.22731 2.29609 7.11603 2.25 7 2.25C6.88397 2.25 6.77269 2.29609 6.69064 2.37814C6.60859 2.46019 6.5625 2.57147 6.5625 2.6875V7.75648L5.12203 6.31547C5.03994 6.23338 4.9286 6.18726 4.8125 6.18726C4.6964 6.18726 4.58506 6.23338 4.50297 6.31547C4.42088 6.39756 4.37476 6.5089 4.37476 6.625C4.37476 6.7411 4.42088 6.85244 4.50297 6.93453L6.69047 9.12203Z" fill="#7A58D0"/>
</svg>
