<svg width="16" height="18" viewBox="0 0 16 18" fill="none" xmlns="http://www.w3.org/2000/svg">
<path d="M2.86111 8.99984H8.76389M2.86111 11.3808H11.125M2.86111 13.7617H6.40278M14.6667 14.9522V6.61889L8.76389 0.666504H2.86111C2.23491 0.666504 1.63435 0.917353 1.19155 1.36387C0.748759 1.81038 0.5 2.41599 0.5 3.04746V14.9522C0.5 15.5837 0.748759 16.1893 1.19155 16.6358C1.63435 17.0823 2.23491 17.3332 2.86111 17.3332H12.3056C12.9318 17.3332 13.5323 17.0823 13.9751 16.6358C14.4179 16.1893 14.6667 15.5837 14.6667 14.9522Z" stroke="#7A58D0" stroke-linecap="round" stroke-linejoin="round"/>
<path d="M8.76514 0.666504V4.23793C8.76514 4.8694 9.0139 5.47501 9.45669 5.92152C9.89948 6.36804 10.5 6.61889 11.1262 6.61889H14.6679" stroke="#7A58D0" stroke-linecap="round" stroke-linejoin="round"/>
</svg>
