<svg width="16" height="16" viewBox="0 0 16 16" fill="none" xmlns="http://www.w3.org/2000/svg">
<path d="M13.9684 2.03213C13.5211 1.5848 12.9144 1.3335 12.2817 1.3335C11.6491 1.3335 11.0424 1.5848 10.5951 2.03213L2.62707 10.0001C2.35626 10.271 2.16587 10.6116 2.07707 10.9841L1.34707 14.0521C1.3273 14.1352 1.32915 14.222 1.35245 14.3042C1.37574 14.3864 1.41971 14.4612 1.48014 14.5216C1.54057 14.5819 1.61546 14.6258 1.69767 14.649C1.77987 14.6722 1.86666 14.674 1.94973 14.6541L5.01707 13.9235C5.38986 13.8348 5.73073 13.6444 6.00173 13.3735L13.9684 5.40679C14.4157 4.95946 14.667 4.35275 14.667 3.72013C14.667 3.0875 14.4157 2.48079 13.9684 2.03346M11.3017 2.74013C11.4304 2.61143 11.5832 2.50934 11.7514 2.43969C11.9195 2.37004 12.0997 2.3342 12.2817 2.3342C12.4637 2.3342 12.644 2.37004 12.8121 2.43969C12.9803 2.50934 13.133 2.61143 13.2617 2.74013C13.3904 2.86882 13.4925 3.0216 13.5622 3.18975C13.6318 3.3579 13.6677 3.53812 13.6677 3.72013C13.6677 3.90213 13.6318 4.08235 13.5622 4.2505C13.4925 4.41865 13.3904 4.57143 13.2617 4.70013L12.6671 5.29279L10.7071 3.33346L11.3017 2.74013ZM10.0004 4.04146L11.9604 6.00013L5.29373 12.6668C5.15373 12.8068 4.97773 12.9048 4.78507 12.9508L2.50773 13.4935L3.04973 11.2161C3.09573 11.0228 3.1944 10.8468 3.3344 10.7068L10.0004 4.04146Z" fill="#7A58D0"/>
</svg>
