<svg width="20" height="20" viewBox="0 0 20 20" fill="none" xmlns="http://www.w3.org/2000/svg">
<path d="M12.9422 7.05764C13.0003 7.11568 13.0464 7.18462 13.0778 7.26049C13.1093 7.33636 13.1255 7.41769 13.1255 7.49983C13.1255 7.58196 13.1093 7.66329 13.0778 7.73916C13.0464 7.81504 13.0003 7.88397 12.9422 7.94201L7.94217 12.942C7.8841 13.0001 7.81516 13.0461 7.73929 13.0776C7.66342 13.109 7.5821 13.1252 7.49998 13.1252C7.41786 13.1252 7.33654 13.109 7.26067 13.0776C7.1848 13.0461 7.11586 13.0001 7.05779 12.942C6.99972 12.8839 6.95366 12.815 6.92223 12.7391C6.89081 12.6633 6.87463 12.5819 6.87463 12.4998C6.87463 12.4177 6.89081 12.3364 6.92223 12.2605C6.95366 12.1846 6.99972 12.1157 7.05779 12.0576L12.0578 7.05764C12.1158 6.99953 12.1848 6.95343 12.2606 6.92198C12.3365 6.89052 12.4178 6.87433 12.5 6.87433C12.5821 6.87433 12.6634 6.89052 12.7393 6.92198C12.8152 6.95343 12.8841 6.99953 12.9422 7.05764ZM16.8437 3.15608C16.4375 2.74977 15.9552 2.42747 15.4243 2.20758C14.8935 1.98769 14.3246 1.87451 13.75 1.87451C13.1754 1.87451 12.6065 1.98769 12.0756 2.20758C11.5448 2.42747 11.0625 2.74977 10.6562 3.15608L8.30779 5.50373C8.19052 5.62101 8.12463 5.78007 8.12463 5.94592C8.12463 6.11177 8.19052 6.27083 8.30779 6.38811C8.42507 6.50538 8.58413 6.57127 8.74998 6.57127C8.91583 6.57127 9.07489 6.50538 9.19217 6.38811L11.5406 4.04436C12.1288 3.46909 12.9201 3.14898 13.7429 3.15351C14.5656 3.15804 15.3533 3.48684 15.9352 4.06856C16.517 4.65028 16.8459 5.43797 16.8506 6.2607C16.8553 7.08343 16.5353 7.87481 15.9601 8.46311L13.6109 10.8115C13.4936 10.9287 13.4277 11.0877 13.4276 11.2535C13.4276 11.4192 13.4934 11.5783 13.6105 11.6955C13.7277 11.8128 13.8867 11.8787 14.0524 11.8788C14.2182 11.8789 14.3772 11.8131 14.4945 11.6959L16.8437 9.34358C17.25 8.93731 17.5723 8.455 17.7922 7.92417C18.0121 7.39334 18.1253 6.8244 18.1253 6.24983C18.1253 5.67526 18.0121 5.10631 17.7922 4.57548C17.5723 4.04466 17.25 3.56234 16.8437 3.15608ZM10.8078 13.6108L8.45935 15.9592C8.17035 16.2547 7.8256 16.4899 7.44507 16.6513C7.06454 16.8126 6.65578 16.8968 6.24246 16.8991C5.82914 16.9014 5.41948 16.8217 5.03719 16.6645C4.6549 16.5074 4.30758 16.276 4.01534 15.9837C3.72311 15.6914 3.49176 15.344 3.33469 14.9617C3.17762 14.5794 3.09795 14.1697 3.1003 13.7564C3.10265 13.3431 3.18697 12.9343 3.34837 12.5538C3.50978 12.1733 3.74506 11.8286 4.0406 11.5397L6.38826 9.19201C6.50554 9.07474 6.57142 8.91568 6.57142 8.74983C6.57142 8.58397 6.50554 8.42491 6.38826 8.30764C6.27099 8.19036 6.11193 8.12448 5.94607 8.12448C5.78022 8.12448 5.62116 8.19036 5.50389 8.30764L3.15623 10.6561C2.33572 11.4766 1.87476 12.5894 1.87476 13.7498C1.87476 14.9102 2.33572 16.0231 3.15623 16.8436C3.97674 17.6641 5.0896 18.125 6.24998 18.125C7.41036 18.125 8.52322 17.6641 9.34373 16.8436L11.6922 14.4944C11.8093 14.3771 11.8751 14.2181 11.8751 14.0523C11.875 13.8865 11.8091 13.7275 11.6918 13.6104C11.5745 13.4932 11.4155 13.4274 11.2497 13.4275C11.0839 13.4276 10.925 13.4935 10.8078 13.6108Z" fill="#7A58D0"/>
</svg>
