<svg width="20" height="20" viewBox="0 0 20 20" fill="none" xmlns="http://www.w3.org/2000/svg">
<path d="M17.4601 2.54028C16.901 1.98112 16.1426 1.66699 15.3518 1.66699C14.561 1.66699 13.8026 1.98112 13.2435 2.54028L3.28347 12.5003C2.94496 12.8388 2.70697 13.2646 2.59597 13.7303L1.68347 17.5653C1.65876 17.6692 1.66108 17.7776 1.6902 17.8804C1.71931 17.9831 1.77427 18.0766 1.84981 18.1521C1.92535 18.2275 2.01896 18.2824 2.12172 18.3114C2.22448 18.3404 2.33295 18.3426 2.4368 18.3178L6.27097 17.4044C6.73696 17.2936 7.16304 17.0556 7.5018 16.7169L17.4601 6.75861C18.0193 6.19944 18.3334 5.44105 18.3334 4.65028C18.3334 3.8595 18.0193 3.10111 17.4601 2.54195M14.1268 3.42528C14.2877 3.26441 14.4787 3.1368 14.6888 3.04974C14.899 2.96268 15.1243 2.91787 15.3518 2.91787C15.5793 2.91787 15.8046 2.96268 16.0148 3.04974C16.225 3.1368 16.4159 3.26441 16.5768 3.42528C16.7377 3.58615 16.8653 3.77713 16.9523 3.98731C17.0394 4.1975 17.0842 4.42278 17.0842 4.65028C17.0842 4.87778 17.0394 5.10306 16.9523 5.31324C16.8653 5.52343 16.7377 5.71441 16.5768 5.87528L15.8335 6.61611L13.3835 4.16695L14.1268 3.42528ZM12.5001 5.05195L14.9501 7.50028L6.6168 15.8336C6.4418 16.0086 6.2218 16.1311 5.98097 16.1886L3.1343 16.8669L3.8118 14.0203C3.8693 13.7786 3.99263 13.5586 4.16763 13.3836L12.5001 5.05195Z" fill="#7C7C7C"/>
</svg>
