<svg width="48" height="48" viewBox="0 0 48 48" fill="none" xmlns="http://www.w3.org/2000/svg">
<path d="M25.876 32.9997C25.876 33.497 25.6785 33.9739 25.3268 34.3255C24.9752 34.6772 24.4983 34.8747 24.001 34.8747C23.5037 34.8747 23.0268 34.6772 22.6752 34.3255C22.3236 33.9739 22.126 33.497 22.126 32.9997C22.126 32.5024 22.3236 32.0255 22.6752 31.6739C23.0268 31.3222 23.5037 31.1247 24.001 31.1247C24.4983 31.1247 24.9752 31.3222 25.3268 31.6739C25.6785 32.0255 25.876 32.5024 25.876 32.9997ZM24.001 13.4997C23.6032 13.4997 23.2217 13.6577 22.9404 13.939C22.6591 14.2203 22.501 14.6019 22.501 14.9997V26.9997C22.501 27.3975 22.6591 27.7791 22.9404 28.0604C23.2217 28.3417 23.6032 28.4997 24.001 28.4997C24.3988 28.4997 24.7804 28.3417 25.0617 28.0604C25.343 27.7791 25.501 27.3975 25.501 26.9997V14.9997C25.501 14.6019 25.343 14.2203 25.0617 13.939C24.7804 13.6577 24.3988 13.4997 24.001 13.4997ZM19.405 5.7132C21.403 2.0982 26.599 2.0982 28.597 5.7132L44.3365 34.2117C46.27 37.7097 43.738 41.9997 39.742 41.9997H8.26152C4.26402 41.9997 1.73352 37.7097 3.66552 34.2117L19.405 5.7132ZM25.9705 7.1637C25.7761 6.81166 25.4908 6.51818 25.1444 6.3138C24.798 6.10942 24.4032 6.00162 24.001 6.00162C23.5988 6.00162 23.204 6.10942 22.8576 6.3138C22.5112 6.51818 22.226 6.81166 22.0315 7.1637L6.29202 35.6622C6.10289 36.0047 6.00637 36.3907 6.01198 36.7819C6.01759 37.1732 6.12513 37.5562 6.32399 37.8932C6.52285 38.2302 6.80615 38.5095 7.14593 38.7035C7.48572 38.8976 7.87023 38.9997 8.26152 38.9997H39.742C40.1333 38.9997 40.5178 38.8976 40.8576 38.7035C41.1974 38.5095 41.4807 38.2302 41.6795 37.8932C41.8784 37.5562 41.9859 37.1732 41.9916 36.7819C41.9972 36.3907 41.9006 36.0047 41.7115 35.6622L25.9705 7.1637Z" fill="#E63838"/>
</svg>
