<svg width="20" height="20" viewBox="0 0 20 20" fill="none" xmlns="http://www.w3.org/2000/svg">
<path d="M18.75 10.6255V15.6255C18.75 15.957 18.6183 16.275 18.3839 16.5094C18.1495 16.7438 17.8315 16.8755 17.5 16.8755H2.5C2.16848 16.8755 1.85054 16.7438 1.61612 16.5094C1.3817 16.275 1.25 15.957 1.25 15.6255V10.6255C1.25 10.294 1.3817 9.97603 1.61612 9.74161C1.85054 9.50719 2.16848 9.37549 2.5 9.37549H6.25C6.41576 9.37549 6.57473 9.44134 6.69194 9.55855C6.80915 9.67576 6.875 9.83473 6.875 10.0005C6.875 10.1663 6.80915 10.3252 6.69194 10.4424C6.57473 10.5596 6.41576 10.6255 6.25 10.6255H2.5V15.6255H17.5V10.6255H13.75C13.5842 10.6255 13.4253 10.5596 13.3081 10.4424C13.1908 10.3252 13.125 10.1663 13.125 10.0005C13.125 9.83473 13.1908 9.67576 13.3081 9.55855C13.4253 9.44134 13.5842 9.37549 13.75 9.37549H17.5C17.8315 9.37549 18.1495 9.50719 18.3839 9.74161C18.6183 9.97603 18.75 10.294 18.75 10.6255ZM6.69219 6.06768L9.375 3.38409V10.0005C9.375 10.1663 9.44085 10.3252 9.55806 10.4424C9.67527 10.5596 9.83424 10.6255 10 10.6255C10.1658 10.6255 10.3247 10.5596 10.4419 10.4424C10.5592 10.3252 10.625 10.1663 10.625 10.0005V3.38409L13.3078 6.06768C13.4251 6.18496 13.5841 6.25084 13.75 6.25084C13.9159 6.25084 14.0749 6.18496 14.1922 6.06768C14.3095 5.9504 14.3753 5.79134 14.3753 5.62549C14.3753 5.45964 14.3095 5.30058 14.1922 5.1833L10.4422 1.4333C10.3841 1.37519 10.3152 1.32909 10.2393 1.29764C10.1635 1.26619 10.0821 1.25 10 1.25C9.91787 1.25 9.83654 1.26619 9.76066 1.29764C9.68479 1.32909 9.61586 1.37519 9.55781 1.4333L5.80781 5.1833C5.69054 5.30058 5.62465 5.45964 5.62465 5.62549C5.62465 5.79134 5.69054 5.9504 5.80781 6.06768C5.92509 6.18495 6.08415 6.25084 6.25 6.25084C6.41585 6.25084 6.57491 6.18496 6.69219 6.06768ZM15.625 13.1255C15.625 12.9401 15.57 12.7588 15.467 12.6046C15.364 12.4505 15.2176 12.3303 15.0463 12.2594C14.875 12.1884 14.6865 12.1698 14.5046 12.206C14.3227 12.2422 14.1557 12.3315 14.0246 12.4626C13.8935 12.5937 13.8042 12.7607 13.768 12.9426C13.7318 13.1245 13.7504 13.313 13.8214 13.4843C13.8923 13.6556 14.0125 13.802 14.1667 13.905C14.3208 14.008 14.5021 14.063 14.6875 14.063C14.9361 14.063 15.1746 13.9642 15.3504 13.7884C15.5262 13.6126 15.625 13.3741 15.625 13.1255Z" fill="#7A58D0"/>
</svg>
