<svg width="20" height="20" viewBox="0 0 20 20" fill="none" xmlns="http://www.w3.org/2000/svg">
<path d="M1.66829 13.335H4.90913L9.32079 16.945C9.38184 16.995 9.45584 17.0267 9.53418 17.0363C9.61253 17.0459 9.69199 17.0331 9.76333 16.9993C9.83467 16.9655 9.89494 16.9122 9.93712 16.8455C9.97931 16.7787 10.0017 16.7014 10.0016 16.6225V3.38081C10.0017 3.30188 9.97931 3.22455 9.93712 3.15784C9.89494 3.09113 9.83467 3.03777 9.76333 3.00398C9.69199 2.97019 9.61253 2.95735 9.53418 2.96697C9.45584 2.97659 9.38184 3.00827 9.32079 3.05831L4.90996 6.66831H1.66829C1.44728 6.66831 1.23532 6.75611 1.07904 6.91239C0.922758 7.06867 0.834961 7.28063 0.834961 7.50165V12.5016C0.834961 12.7227 0.922758 12.9346 1.07904 13.0909C1.23532 13.2472 1.44728 13.335 1.66829 13.335ZM19.1683 10.0016C19.1683 12.745 17.9633 15.2066 16.0533 16.8866L14.8716 15.705C15.6971 15.0017 16.3598 14.1273 16.8139 13.1426C17.268 12.1578 17.5027 11.0861 17.5016 10.0016C17.5028 8.91727 17.2683 7.8456 16.8143 6.86083C16.3603 5.87606 15.6978 5.00171 14.8725 4.29831L16.0533 3.11665C17.0331 3.97602 17.818 5.03491 18.3552 6.22234C18.8925 7.40978 19.1697 8.69833 19.1683 10.0016ZM15.0016 10.0016C15.0022 9.24539 14.831 8.49889 14.5008 7.81851C14.1707 7.13813 13.6902 6.54166 13.0958 6.07415L11.905 7.26498C12.3466 7.57179 12.7073 7.98097 12.9563 8.45755C13.2054 8.93413 13.3353 9.46392 13.335 10.0016C13.335 11.135 12.7691 12.1358 11.905 12.7383L13.0966 13.93C13.691 13.4623 14.1714 12.8657 14.5014 12.1851C14.8314 11.5046 15.0024 10.758 15.0016 10.0016Z" fill="#7A58D0"/>
</svg>
