<svg width="14" height="15" viewBox="0 0 14 15" fill="none" xmlns="http://www.w3.org/2000/svg">
<path d="M7 1.8125C5.87512 1.8125 4.7755 2.14607 3.8402 2.77102C2.90489 3.39597 2.17591 4.28423 1.74544 5.32349C1.31496 6.36274 1.20233 7.50631 1.42179 8.60958C1.64124 9.71284 2.18292 10.7263 2.97833 11.5217C3.77374 12.3171 4.78716 12.8588 5.89043 13.0782C6.99369 13.2977 8.13726 13.185 9.17651 12.7546C10.2158 12.3241 11.104 11.5951 11.729 10.6598C12.3539 9.7245 12.6875 8.62488 12.6875 7.5C12.6859 5.99207 12.0862 4.54636 11.0199 3.48009C9.95365 2.41382 8.50793 1.81409 7 1.8125ZM7 12.3125C6.04818 12.3125 5.11773 12.0303 4.32632 11.5014C3.53491 10.9726 2.91808 10.221 2.55383 9.34166C2.18959 8.46229 2.09428 7.49466 2.27997 6.56113C2.46566 5.62759 2.92401 4.77009 3.59705 4.09705C4.27009 3.42401 5.1276 2.96566 6.06113 2.77997C6.99466 2.59428 7.9623 2.68958 8.84167 3.05383C9.72104 3.41808 10.4726 4.03491 11.0014 4.82632C11.5303 5.61773 11.8125 6.54818 11.8125 7.5C11.8111 8.77591 11.3036 9.99915 10.4014 10.9014C9.49915 11.8036 8.27591 12.3111 7 12.3125ZM6.5625 7.9375V4.875C6.5625 4.75897 6.6086 4.64769 6.69064 4.56564C6.77269 4.48359 6.88397 4.4375 7 4.4375C7.11603 4.4375 7.22731 4.48359 7.30936 4.56564C7.39141 4.64769 7.4375 4.75897 7.4375 4.875V7.9375C7.4375 8.05353 7.39141 8.16481 7.30936 8.24686C7.22731 8.32891 7.11603 8.375 7 8.375C6.88397 8.375 6.77269 8.32891 6.69064 8.24686C6.6086 8.16481 6.5625 8.05353 6.5625 7.9375ZM7.65625 9.90625C7.65625 10.036 7.61776 10.1629 7.54565 10.2708C7.47354 10.3788 7.37105 10.4629 7.25114 10.5125C7.13122 10.5622 6.99927 10.5752 6.87197 10.5499C6.74467 10.5246 6.62774 10.4621 6.53596 10.3703C6.44419 10.2785 6.38168 10.1616 6.35636 10.0343C6.33104 9.90698 6.34404 9.77503 6.39371 9.65511C6.44338 9.5352 6.52749 9.43271 6.63541 9.3606C6.74333 9.28849 6.87021 9.25 7 9.25C7.17405 9.25 7.34097 9.31914 7.46404 9.44221C7.58711 9.56528 7.65625 9.7322 7.65625 9.90625Z" fill="#7C7C7C"/>
</svg>
